<?xml version="1.0" encoding="UTF-8" standalone="no"?>
<!-- Created with Inkscape (http://www.inkscape.org/) -->

<svg
   version="1.1"
   id="svg2"
   width="576.73468"
   height="188.17918"
   viewBox="0 0 576.73468 188.17918"
   sodipodi:docname="Untitled-1.ai"
   xmlns:inkscape="http://www.inkscape.org/namespaces/inkscape"
   xmlns:sodipodi="http://sodipodi.sourceforge.net/DTD/sodipodi-0.dtd"
   xmlns="http://www.w3.org/2000/svg"
   xmlns:svg="http://www.w3.org/2000/svg">
  <defs
     id="defs6">
    <clipPath
       clipPathUnits="userSpaceOnUse"
       id="clipPath76">
      <path
         d="M 0,500 H 500 V 0 H 0 Z"
         id="path74" />
    </clipPath>
  </defs>
  <sodipodi:namedview
     id="namedview4"
     pagecolor="#ffffff"
     bordercolor="#000000"
     borderopacity="0.25"
     inkscape:showpageshadow="2"
     inkscape:pageopacity="0.0"
     inkscape:pagecheckerboard="0"
     inkscape:deskcolor="#d1d1d1"
     showgrid="false" />
  <g
     id="g68"
     inkscape:groupmode="layer"
     inkscape:label="Page 2"
     transform="matrix(1.3333333,0,0,-1.3333333,-60.859999,480.12985)">
    <g
       id="g70">
      <g
         id="g72"
         clip-path="url(#clipPath76)">
        <g
           id="g78"
           transform="translate(290.7013,326.3004)">
          <path
             d="M 0,0 -19.792,12.864 -39.583,0 c -2.102,-1.348 -3.495,-3.705 -3.495,-6.387 V -21.55 c 0,2.663 1.372,5.005 3.449,6.357 0.021,0.015 0.041,0.028 0.062,0.041 l 2.184,1.42 9.362,6.084 8.229,5.349 8.23,-5.349 9.362,-6.084 2.184,-1.42 c 0.02,-0.013 0.041,-0.026 0.062,-0.041 2.076,-1.352 3.449,-3.694 3.449,-6.357 V -6.387 C 3.495,-3.705 2.102,-1.348 0,0"
             style="fill:#7ecab2;fill-opacity:1;fill-rule:nonzero;stroke:none"
             id="path80" />
        </g>
        <g
           id="g82"
           transform="translate(290.7013,347.2334)">
          <path
             d="M 0,0 -19.792,12.864 -39.583,0 c -2.102,-1.348 -3.495,-3.705 -3.495,-6.387 V -21.55 c 0,2.663 1.372,5.005 3.449,6.357 0.021,0.015 0.041,0.028 0.062,0.041 l 2.184,1.42 9.362,6.084 8.229,5.349 8.23,-5.349 9.362,-6.084 2.184,-1.42 c 0.02,-0.013 0.041,-0.026 0.062,-0.041 2.076,-1.352 3.449,-3.694 3.449,-6.357 V -6.387 C 3.495,-3.705 2.102,-1.348 0,0"
             style="fill:#7ecab2;fill-opacity:1;fill-rule:nonzero;stroke:none"
             id="path84" />
        </g>
        <g
           id="g86"
           transform="translate(448.3307,283.5479)">
          <path
             d="m 0,0 h 1.828 c 1.84,0 3.376,0.585 4.566,1.738 1.198,1.161 1.805,2.966 1.805,5.364 0,2.397 -0.607,4.202 -1.806,5.364 -1.19,1.154 -2.726,1.738 -4.565,1.738 H 0 c -1.838,0 -3.375,-0.584 -4.566,-1.738 -1.197,-1.162 -1.805,-2.967 -1.805,-5.364 0,-2.398 0.608,-4.203 1.805,-5.364 C -3.376,0.585 -1.84,0 0,0"
             style="fill:#ffffff;fill-opacity:1;fill-rule:nonzero;stroke:none"
             id="path88" />
        </g>
        <g
           id="g90"
           transform="translate(407.3235,256.3623)">
          <path
             d="m 0,0 c -0.369,-0.708 -1.047,-1.262 -2.032,-1.693 -1.077,-0.493 -2.554,-0.831 -4.371,-1.047 -1.877,-0.184 -4.278,-0.307 -7.172,-0.307 h -21.762 l 3.294,4.986 c 1.108,1.693 2.278,3.048 3.478,4.094 1.201,1.016 2.524,1.816 4.002,2.37 1.508,0.585 3.262,0.985 5.232,1.201 2.032,0.184 4.433,0.307 7.142,0.307 h 2.739 c 3.725,0 6.372,-0.584 7.911,-1.723 C -0.092,7.08 0.616,5.418 0.616,3.109 0.616,1.816 0.431,0.77 0,0 m 51.405,6.957 c -0.185,2.031 -0.431,3.878 -0.739,5.571 l -1.539,9.45 -11.913,-1.97 1.724,-9.481 c 0.431,-2.278 0.708,-4.155 0.862,-5.54 0.154,-1.416 0.215,-2.555 0.215,-3.417 0,-0.893 -0.123,-1.632 -0.4,-2.186 C 39.369,-1.139 38.907,-1.57 38.23,-1.908 37.461,-2.309 36.383,-2.617 35.09,-2.77 33.705,-2.955 31.889,-3.047 29.765,-3.047 H 14.59 c -1.077,0 -2.185,0.061 -3.293,0.154 0.277,1.539 0.431,3.262 0.431,5.171 0,7.233 -1.909,12.989 -5.664,17.083 -3.755,4.125 -9.45,6.218 -16.899,6.218 -4.371,0 -8.434,-0.739 -12.066,-2.216 -3.232,-1.324 -6.31,-3.386 -9.204,-6.126 l 0.955,9.173 V 50.912 H -44.079 V 0.185 l -1.877,-3.232 h -7.203 c -3.755,0 -5.418,1.693 -5.418,5.417 V 50.912 H -71.505 V 12.343 c 0,-1.723 -0.154,-3.263 -0.461,-4.555 -0.308,-1.232 -0.831,-2.278 -1.601,-3.171 -0.769,-0.923 -1.816,-1.754 -3.14,-2.462 -1.139,-0.647 -2.554,-1.232 -4.217,-1.786 l -6.987,39.339 -12.713,-2.247 7.142,-40.385 -14.868,-3.479 3.54,-15.236 22.347,5.233 c 3.817,0.923 6.865,2.893 9.019,5.879 1.385,1.878 2.494,4.278 3.355,7.141 0.524,-4.494 1.909,-8.003 4.156,-10.435 2.924,-3.17 7.51,-4.832 13.697,-4.894 h 38.661 c 6.988,0 12.559,1.17 16.561,3.447 1.662,-1.231 3.416,-2.123 5.263,-2.616 2.001,-0.554 4.125,-0.831 6.341,-0.831 h 15.175 c 7.665,0 13.267,1.662 16.714,4.956 3.448,3.263 5.202,8.434 5.202,15.329 0,1.539 -0.092,3.355 -0.276,5.387"
             style="fill:#ffffff;fill-opacity:1;fill-rule:nonzero;stroke:none"
             id="path92" />
        </g>
        <path
           d="m 478.196,307.26 h -12.925 v -69.603 h 12.925 z"
           style="fill:#ffffff;fill-opacity:1;fill-rule:nonzero;stroke:none"
           id="path94" />
        <g
           id="g96"
           transform="translate(60.02,267.8128)">
          <path
             d="m 0,0 c 0,3.078 0.8,5.541 2.401,7.388 1.601,1.846 3.817,2.77 6.618,2.77 2.832,0 4.925,-0.924 6.249,-2.77 1.354,-1.847 2.031,-4.279 2.031,-7.296 V -0.739 H 0 Z m 31.674,-8.926 v 4.124 c 0,3.325 -0.431,6.526 -1.262,9.542 -0.862,3.048 -2.186,5.726 -4.033,8.034 -1.877,2.34 -4.247,4.186 -7.141,5.541 -2.924,1.385 -6.433,2.093 -10.496,2.093 -3.694,0 -6.987,-0.616 -9.85,-1.847 -2.894,-1.231 -5.325,-2.955 -7.295,-5.202 -1.97,-2.278 -3.448,-4.986 -4.463,-8.126 -1.016,-3.171 -1.509,-6.71 -1.509,-10.589 0,-3.94 0.523,-7.51 1.57,-10.712 1.016,-3.201 2.555,-5.91 4.586,-8.126 2.032,-2.216 4.525,-3.94 7.48,-5.171 2.925,-1.231 6.28,-1.816 10.035,-1.816 4.525,0 8.557,0.708 12.097,2.154 3.54,1.447 6.402,3.448 8.588,6.034 l -6.957,8.68 c -1.569,-1.632 -3.263,-3.017 -5.079,-4.156 -1.816,-1.169 -4.155,-1.723 -7.049,-1.723 -3.755,0 -6.494,0.954 -8.249,2.831 C 0.893,-15.452 0,-12.897 0,-9.665 v 0.739 z"
             style="fill:#ffffff;fill-opacity:1;fill-rule:nonzero;stroke:none"
             id="path98" />
        </g>
        <g
           id="g100"
           transform="translate(135.6184,283.1419)">
          <path
             d="m 0,0 c -2.586,3.386 -6.433,5.079 -11.512,5.079 -3.879,0 -6.926,-0.954 -9.111,-2.832 -2.186,-1.878 -3.725,-4.094 -4.618,-6.679 h -0.554 V 3.94 h -13.913 v -49.342 h 13.913 v 31.95 c 0,1.201 0.247,2.248 0.77,3.14 0.493,0.924 1.17,1.693 2.001,2.309 0.862,0.646 1.816,1.077 2.862,1.354 1.078,0.308 2.186,0.431 3.294,0.431 2.586,0 4.371,-0.769 5.356,-2.308 1.016,-1.509 1.508,-3.879 1.508,-7.08 V -45.402 H 3.909 v 30.935 C 3.909,-8.219 2.616,-3.386 0,0"
             style="fill:#ffffff;fill-opacity:1;fill-rule:nonzero;stroke:none"
             id="path102" />
        </g>
        <g
           id="g104"
           transform="translate(172.5866,276.2776)">
          <path
             d="m 0,0 v 10.804 h -9.758 v 13.328 h -12.497 v -8.064 c 0,-1.693 -0.338,-2.986 -1.046,-3.909 -0.677,-0.893 -1.97,-1.355 -3.848,-1.355 h -3.478 V 0 h 6.956 v -24.163 c 0,-4.679 1.232,-8.249 3.725,-10.712 2.462,-2.432 6.125,-3.663 10.927,-3.663 h 8.28 v 10.804 H -9.758 V 0 Z"
             style="fill:#ffffff;fill-opacity:1;fill-rule:nonzero;stroke:none"
             id="path106" />
        </g>
        <g
           id="g108"
           transform="translate(190.532,248.5438)">
          <path
             d="M 0,0 V 58.73 H -13.882 V 2.74 c 0,-4.402 1.108,-7.757 3.324,-10.066 2.216,-2.309 5.725,-3.478 10.466,-3.478 h 6.31 L 6.218,0 Z"
             style="fill:#ffffff;fill-opacity:1;fill-rule:nonzero;stroke:none"
             id="path110" />
        </g>
        <g
           id="g112"
           transform="translate(227.0076,252.6377)">
          <path
             d="m 0,0 c 0,-2.247 -0.831,-3.848 -2.493,-4.833 -1.662,-1.015 -3.663,-1.508 -5.972,-1.508 -2.062,0 -3.663,0.431 -4.802,1.262 -1.108,0.831 -1.693,2.155 -1.693,3.971 v 1.385 c 0,3.663 2.74,5.51 8.188,5.51 H 0 Z m 13.913,-4.094 v 21.608 c 0,5.91 -1.754,10.374 -5.264,13.452 -3.509,3.078 -8.772,4.617 -15.79,4.617 -5.202,0 -9.327,-0.862 -12.374,-2.524 -3.017,-1.662 -5.541,-3.971 -7.542,-6.926 l 8.25,-7.387 c 1.077,1.508 2.431,2.862 4.063,4.032 1.6,1.2 3.817,1.785 6.556,1.785 2.955,0 5.048,-0.708 6.31,-2.093 C -0.646,21.054 0,19.146 0,16.776 v -3.109 h -7.818 c -6.495,0 -11.666,-1.262 -15.453,-3.786 -3.786,-2.524 -5.663,-6.372 -5.663,-11.574 0,-4.309 1.293,-7.757 3.94,-10.404 2.616,-2.616 6.402,-3.909 11.358,-3.909 3.755,0 6.926,0.831 9.511,2.493 2.555,1.632 4.217,4.063 4.956,7.265 h 0.585 c 0.431,-2.617 1.477,-4.741 3.14,-6.28 1.662,-1.57 3.724,-2.37 6.248,-2.37 h 7.695 v 10.804 z"
             style="fill:#ffffff;fill-opacity:1;fill-rule:nonzero;stroke:none"
             id="path114" />
        </g>
        <g
           id="g116"
           transform="translate(279.4279,255.131)">
          <path
             d="m 0,0 c 0,-2.247 -0.862,-4.032 -2.586,-5.294 -1.723,-1.293 -3.878,-1.939 -6.525,-1.939 -2.617,0 -4.802,0.923 -6.526,2.77 -1.724,1.847 -2.586,4.34 -2.586,7.479 v 8.527 c 0,3.14 0.862,5.633 2.586,7.48 1.724,1.847 3.909,2.77 6.526,2.77 2.647,0 4.802,-0.646 6.525,-1.908 C -0.862,18.592 0,16.807 0,14.559 Z m 0,31.951 v -8.28 h -0.462 c -0.677,2.77 -2.278,5.017 -4.74,6.772 -2.493,1.754 -5.325,2.647 -8.496,2.647 -6.279,0 -11.019,-2.216 -14.19,-6.587 -3.201,-4.402 -4.802,-10.774 -4.802,-19.177 0,-8.403 1.601,-14.806 4.802,-19.207 3.171,-4.433 7.911,-6.618 14.19,-6.618 1.539,0 3.078,0.215 4.556,0.708 1.447,0.461 2.77,1.108 3.94,1.969 1.139,0.832 2.124,1.847 2.955,2.986 0.8,1.17 1.416,2.401 1.785,3.725 H 0 v -27.057 h 13.913 v 68.119 z"
             style="fill:#ffffff;fill-opacity:1;fill-rule:nonzero;stroke:none"
             id="path118" />
        </g>
        <g
           id="g120"
           transform="translate(287.7695,306.5663)">
          <path
             d="M 0,0 C -1.108,1.17 -3.047,1.755 -5.879,1.755 -8.68,1.755 -10.65,1.17 -11.758,0 -12.836,-1.139 -13.39,-2.555 -13.39,-4.186 v -2.34 c 0,-1.631 0.554,-3.016 1.632,-4.186 1.108,-1.139 3.078,-1.724 5.879,-1.724 2.832,0 4.771,0.585 5.879,1.724 1.108,1.17 1.631,2.555 1.631,4.186 v 2.34 C 1.631,-2.555 1.108,-1.139 0,0 m -20.685,0 c -1.077,1.17 -3.047,1.755 -5.848,1.755 -2.832,0 -4.802,-0.585 -5.879,-1.755 -1.109,-1.139 -1.663,-2.555 -1.663,-4.186 v -2.34 c 0,-1.631 0.554,-3.016 1.663,-4.186 1.077,-1.139 3.047,-1.724 5.879,-1.724 2.801,0 4.771,0.585 5.848,1.724 1.108,1.17 1.662,2.555 1.662,4.186 v 2.34 c 0,1.631 -0.554,3.047 -1.662,4.186"
             style="fill:#ffffff;fill-opacity:1;fill-rule:nonzero;stroke:none"
             id="path122" />
        </g>
      </g>
    </g>
  </g>
</svg>
